<svg xmlns="http://www.w3.org/2000/svg" xmlns:xlink="http://www.w3.org/1999/xlink" xmlns:svgjs="http://svgjs.dev/svgjs" width="1000" height="224"><svg viewBox="0 0 396 89" data-background-color="#ffffff" height="224" width="1000" xmlns="http://www.w3.org/2000/svg" xmlns:xlink="http://www.w3.org/1999/xlink" transform="translate(-.606 .171)"><svg height="89.136" width="395.52" transform="translate(.24 -.068)"><svg viewBox="0 0 515.373 116.146" height="89.136" width="395.52"><svg height="84.042" width="395.52" transform="translate(119.853 16.052)"><svg height="84.042" width="395.52"><path fill="none" stroke-width="9.018" stroke="#000" data-fill-palette-color="none" data-stroke-palette-color="tertiary" d="M0 0h395.52v69.976H0z"/><path data-fill-palette-color="tertiary" d="M0 69.976h395.52v14.066H0z"/><svg height="69.976" width="395.52"><svg width="348.305" viewBox="3.85 -35.5 550.85 36" height="22.761" data-palette-color="#252324" transform="translate(23.608 23.608)"><path d="M25.3-7.05l1.35.65q-1.35 3.3-3.8 5.1Q20.4.5 15.5.5 9.35.5 6.6-3.28 3.85-7.05 3.85-15.05v-4.9q0-8 2.75-11.78 2.75-3.77 8.9-3.77 4.9 0 7.35 1.8 2.45 1.8 3.8 5.1l-1.35.65q-1.15-2.9-3.25-4.48Q19.95-34 15.5-34q-2.45 0-4.2.62-1.75.63-3.15 2.13t-2.1 4.32q-.7 2.83-.7 6.98v4.9q0 4.15.7 6.97.7 2.83 2.1 4.33 1.4 1.5 3.15 2.12 1.75.63 4.2.63 4.45 0 6.55-1.58 2.1-1.57 3.25-4.47zM35.8-1.5h19.4V0H34.3v-35h1.5v33.5zm44.55-1.78Q77.6.5 71.45.5t-8.9-3.78Q59.8-7.05 59.8-15.05v-4.9q0-8 2.75-11.78 2.75-3.77 8.9-3.77t8.9 3.77q2.75 3.78 2.75 11.78v4.9q0 8-2.75 11.77zm-4.7-30.1Q73.9-34 71.45-34t-4.2.62q-1.75.63-3.15 2.13T62-26.93q-.7 2.83-.7 6.98v4.9q0 4.15.7 6.97.7 2.83 2.1 4.33 1.4 1.5 3.15 2.12Q69-1 71.45-1t4.2-.63q1.75-.62 3.15-2.12t2.1-4.33q.7-2.82.7-6.97v-4.9q0-4.15-.7-6.98-.7-2.82-2.1-4.32-1.4-1.5-3.15-2.13zM87.69-35h25v1.5h-11.75V0h-1.5v-33.5H87.69V-35zm51.7 0V0h-1.5v-17.5h-18V0h-1.5v-35h1.5v16h18v-16h1.5zm27.85 15.2v1.5h-14.85l15.3-15.2h-16.9v32h19.4V0h-20.9v-35h22.05l-15.3 15.2h11.2zm9.8-6.55q0-4.85 2.45-7 2.45-2.15 7.95-2.15 3.85 0 6.2 2t3.4 6.1l-4.65 3.5h-2.45l5.4-4.05q-1.05-3.35-3.03-4.7-1.97-1.35-4.87-1.35-2 0-3.38.25-1.37.25-2.75.98-1.37.72-2.07 2.32-.7 1.6-.7 4.1 0 2.2 2.02 3.9 2.03 1.7 4.93 2.9t5.82 2.45q2.93 1.25 4.95 3.2 2.03 1.95 2.03 4.5 0 5-2.48 7.45Q193.34.5 187.34.5q-4.9 0-7.7-1.98-2.8-1.97-3.85-6.12l1.4-.6q1 4.05 3.42 5.62Q183.04-1 187.34-1q4.8 0 7.12-1.85 2.33-1.85 2.33-6.55 0-2.2-2.03-3.9-2.02-1.7-4.95-2.9-2.92-1.2-5.82-2.45-2.9-1.25-4.93-3.2-2.02-1.95-2.02-4.5zm63.59-7.15h-16.65l14.15 26.65q2.5-4.15 2.5-9.85h1.5q0 7-3.1 11.55L241.78 0h-1.7l-2.05-3.9q-3.7 4.15-9.5 4.15-4 0-7-3.08-3-3.07-3-8.37 0-4.15 2.65-6.9t7.45-3.4L221.48-35h19.15v1.5zm-3.45 28.05l-7.75-14.6q-4.2.55-6.8 3-2.6 2.45-2.6 5.85 0 4.25 2.6 7.1 2.6 2.85 5.9 2.85 5.3 0 8.65-4.2zM265.83 0v-1.5h18.4l-10.6-29.15L262.48 0h-1.6l12.75-35.05L286.38 0h-20.55zm46.74-7.05l1.35.65q-1.35 3.3-3.8 5.1-2.45 1.8-7.35 1.8-6.15 0-8.9-3.78-2.75-3.77-2.75-11.77v-4.9q0-8 2.75-11.78 2.75-3.77 8.9-3.77 4.9 0 7.35 1.8 2.45 1.8 3.8 5.1l-1.35.65q-1.15-2.9-3.25-4.48-2.1-1.57-6.55-1.57-2.45 0-4.2.62-1.75.63-3.15 2.13t-2.1 4.32q-.7 2.83-.7 6.98v4.9q0 4.15.7 6.97.7 2.83 2.1 4.33 1.4 1.5 3.15 2.12 1.75.63 4.2.63 4.45 0 6.55-1.58 2.1-1.57 3.25-4.47zm29.35 0l1.35.65q-1.35 3.3-3.8 5.1-2.45 1.8-7.35 1.8-6.15 0-8.9-3.78-2.75-3.77-2.75-11.77v-4.9q0-8 2.75-11.78 2.75-3.77 8.9-3.77 4.9 0 7.35 1.8 2.45 1.8 3.8 5.1l-1.35.65q-1.15-2.9-3.25-4.48-2.1-1.57-6.55-1.57-2.45 0-4.2.62-1.75.63-3.15 2.13t-2.1 4.32q-.7 2.83-.7 6.98v4.9q0 4.15.7 6.97.7 2.83 2.1 4.33 1.4 1.5 3.15 2.12 1.75.63 4.2.63 4.45 0 6.55-1.58 2.1-1.57 3.25-4.47zm26.95-12.75v1.5h-14.85l15.3-15.2h-16.9v32h19.4V0h-20.9v-35h22.05l-15.3 15.2h11.2zm9.8-6.55q0-4.85 2.45-7 2.45-2.15 7.95-2.15 3.85 0 6.2 2t3.4 6.1l-4.65 3.5h-2.45l5.4-4.05q-1.05-3.35-3.03-4.7-1.97-1.35-4.87-1.35-2 0-3.38.25-1.37.25-2.75.98-1.37.72-2.07 2.32-.7 1.6-.7 4.1 0 2.2 2.02 3.9 2.03 1.7 4.93 2.9t5.82 2.45q2.93 1.25 4.95 3.2 2.03 1.95 2.03 4.5 0 5-2.48 7.45Q394.97.5 388.97.5q-4.9 0-7.7-1.98-2.8-1.97-3.85-6.12l1.4-.6q1 4.05 3.42 5.62Q384.67-1 388.97-1q4.8 0 7.12-1.85 2.33-1.85 2.33-6.55 0-2.2-2.03-3.9-2.02-1.7-4.95-2.9-2.92-1.2-5.82-2.45-2.9-1.25-4.93-3.2-2.02-1.95-2.02-4.5zm28.04 0q0-4.85 2.45-7 2.45-2.15 7.95-2.15 3.85 0 6.2 2t3.4 6.1l-4.65 3.5h-2.45l5.4-4.05q-1.05-3.35-3.02-4.7-1.98-1.35-4.88-1.35-2 0-3.37.25-1.38.25-2.75.98-1.38.72-2.08 2.32-.7 1.6-.7 4.1 0 2.2 2.03 3.9 2.02 1.7 4.92 2.9t5.83 2.45q2.92 1.25 4.95 3.2 2.02 1.95 2.02 4.5 0 5-2.47 7.45Q423.01.5 417.01.5q-4.9 0-7.7-1.98-2.8-1.97-3.85-6.12l1.4-.6q1 4.05 3.43 5.62Q412.71-1 417.01-1q4.8 0 7.13-1.85 2.32-1.85 2.32-6.55 0-2.2-2.02-3.9-2.03-1.7-4.95-2.9-2.93-1.2-5.83-2.45-2.9-1.25-4.92-3.2-2.03-1.95-2.03-4.5zm48.55 23.07Q452.51.5 446.36.5t-8.9-3.78q-2.75-3.77-2.75-11.77v-4.9q0-8 2.75-11.78 2.75-3.77 8.9-3.77t8.9 3.77q2.75 3.78 2.75 11.78v4.9q0 8-2.75 11.77zm-4.7-30.1q-1.75-.62-4.2-.62t-4.2.62q-1.75.63-3.15 2.13t-2.1 4.32q-.7 2.83-.7 6.98v4.9q0 4.15.7 6.97.7 2.83 2.1 4.33 1.4 1.5 3.15 2.12 1.75.63 4.2.63t4.2-.63q1.75-.62 3.15-2.12t2.1-4.33q.7-2.82.7-6.97v-4.9q0-4.15-.7-6.98-.7-2.82-2.1-4.32-1.4-1.5-3.15-2.13zM470.71 0v-1.5h13.8l-6.05-16.6 2.8-1.6q3.45-1.9 3.45-6.05 0-7.75-11.8-7.75h-4.6V0h-1.5v-35h6.1q6.6 0 9.95 2.42 3.35 2.43 3.35 6.83 0 5-4.2 7.35l-1.7.95L486.66 0h-15.95zm25.1-35V0h-1.5v-35h1.5zm27.84 15.2v1.5H508.8l15.3-15.2h-16.9v32h19.4V0h-20.9v-35h22.05l-15.3 15.2h11.2zm9.8-6.55q0-4.85 2.45-7 2.45-2.15 7.95-2.15 3.85 0 6.2 2t3.4 6.1l-4.65 3.5h-2.45l5.4-4.05q-1.05-3.35-3.02-4.7-1.98-1.35-4.88-1.35-2 0-3.37.25-1.38.25-2.75.98-1.38.72-2.08 2.32-.7 1.6-.7 4.1 0 2.2 2.03 3.9 2.02 1.7 4.92 2.9t5.83 2.45q2.92 1.25 4.95 3.2 2.02 1.95 2.02 4.5 0 5-2.47 7.45Q549.75.5 543.75.5q-4.9 0-7.7-1.98-2.8-1.97-3.85-6.12l1.4-.6q1 4.05 3.43 5.62Q539.45-1 543.75-1q4.8 0 7.13-1.85 2.32-1.85 2.32-6.55 0-2.2-2.02-3.9-2.03-1.7-4.95-2.9-2.93-1.2-5.83-2.45-2.9-1.25-4.92-3.2-2.03-1.95-2.03-4.5z" class="undefined-text-0" data-fill-palette-color="primary"/></svg></svg></svg></svg><svg height="116.146" width="108.05"><svg xmlns="http://www.w3.org/2000/svg" viewBox="8.912 4.989 82.178 88.336" height="116.146" width="108.05" class="icon-icon-0" data-fill-palette-color="accent"><path d="M90.83 52.403c-.038-.056-3.838-5.639-8.306-11.146-8.434-10.397-11.898-11.599-13.77-11.599h-6.1c-.05 0-.098.01-.146.015l-10.197-6.325v-3.296c3.369-.794 5.887-3.818 5.887-7.426 0-4.211-3.426-7.637-7.637-7.637s-7.637 3.426-7.637 7.637a1.75 1.75 0 003.5 0 4.142 4.142 0 014.137-4.137c2.281 0 4.137 1.856 4.137 4.137s-1.855 4.137-4.137 4.137a1.75 1.75 0 00-1.75 1.75v4.838L38.64 29.659h-7.22c-5.827 0-18.493 17.395-22.236 22.726a1.5 1.5 0 00.28 2.025l14.08 11.478a1.497 1.497 0 002.111-.214l1.434-1.759v27.91a1.5 1.5 0 001.5 1.5h43.167a1.5 1.5 0 001.5-1.5V64.332l1.094 1.341a1.498 1.498 0 002.11.214l14.079-11.479a1.5 1.5 0 00.291-2.005zM50.562 26.382l10.498 6.511c-.54 3.474-3.567 6.145-7.223 6.145h-5.834c-3.787 0-6.906-2.891-7.251-6.571l9.81-6.085z" data-fill-palette-color="accent"/></svg></svg></svg></svg></svg></svg>