<svg xmlns="http://www.w3.org/2000/svg" version="1.1" xmlns:xlink="http://www.w3.org/1999/xlink" xmlns:svgjs="http://svgjs.dev/svgjs" width="200" height="224" viewBox="0 0 210 224"><g transform="matrix(1,0,0,1,-0.6060606060606233,0.1709749903665312)"><svg viewBox="0 0 396 89" data-background-color="#ffffff" preserveAspectRatio="xMidYMid meet" height="224" width="1000" xmlns="http://www.w3.org/2000/svg" xmlns:xlink="http://www.w3.org/1999/xlink"><g id="tight-bounds" transform="matrix(1,0,0,1,0.2400000000000091,-0.06793202742241533)"><svg viewBox="0 0 395.52 89.13586405484483" height="89.13586405484483" width="395.52"><g><svg viewBox="0 0 515.3734282601632 116.14648017515484" height="89.13586405484483" width="395.52"><g transform="matrix(1,0,0,1,119.85342826016321,16.05208228180505)"><svg viewBox="0 0 395.52 84.04231561154474" height="84.04231561154474" width="395.52"></svg></g><g><svg viewBox="0 0 108.04962826016322 116.14648017515484" height="116.14648017515484" width="108.04962826016322"><g><svg xmlns="http://www.w3.org/2000/svg" xmlns:xlink="http://www.w3.org/1999/xlink" version="1.1" x="0" y="0" viewBox="8.911556167475574 4.989000000000003 82.1778838893432 88.33599999999998" enable-background="new 0 0 100 100" xml:space="preserve" height="116.14648017515484" width="108.04962826016322" class="icon-icon-0" data-fill-palette-color="accent" id="icon-0"><path d="M90.83 52.403c-0.038-0.056-3.838-5.639-8.306-11.146C74.09 30.86 70.626 29.658 68.754 29.658h-6.1c-0.05 0-0.098 0.01-0.146 0.015l-10.197-6.325v-3.296c3.369-0.794 5.887-3.818 5.887-7.426 0-4.211-3.426-7.637-7.637-7.637s-7.637 3.426-7.637 7.637c0 0.966 0.784 1.75 1.75 1.75s1.75-0.784 1.75-1.75c0-2.281 1.856-4.137 4.137-4.137 2.281 0 4.137 1.856 4.137 4.137s-1.855 4.137-4.137 4.137c-0.966 0-1.75 0.784-1.75 1.75v4.838l-10.171 6.308h-4.731H31.42c-5.827 0-18.493 17.395-22.236 22.726-0.452 0.645-0.33 1.528 0.28 2.025l14.08 11.478c0.278 0.228 0.614 0.338 0.947 0.338 0.436 0 0.867-0.188 1.164-0.552l1.434-1.759v27.91c0 0.828 0.671 1.5 1.5 1.5h43.167c0.828 0 1.5-0.672 1.5-1.5V64.332l1.094 1.341c0.296 0.363 0.728 0.552 1.163 0.552 0.333 0 0.668-0.11 0.947-0.338l14.079-11.479C91.14 53.917 91.267 53.047 90.83 52.403zM50.562 26.382l10.498 6.511c-0.54 3.474-3.567 6.145-7.223 6.145h-5.834c-3.787 0-6.906-2.891-7.251-6.571L50.562 26.382z" fill="#000000" data-fill-palette-color="accent"></path></svg></g></svg></g></svg></g><defs></defs></svg><rect width="395.52" height="89.13586405484483" fill="none" stroke="none" visibility="hidden"></rect></g></svg></g></svg>